<mxfile host="app.diagrams.net" modified="2023-06-02T09:46:08.769Z" agent="Mozilla/5.0 (Windows NT 10.0; Win64; x64) AppleWebKit/537.36 (KHTML, like Gecko) Chrome/113.0.0.0 Safari/537.36 Edg/113.0.1774.57" etag="4Ty2bLg4HkaV7-0rdKh-" version="21.3.5" type="github" pages="3">
  <diagram id="y-c1-t9FZAE6zdqnbFe-" name="Conductor">
    <mxGraphModel dx="2797" dy="2306" grid="1" gridSize="10" guides="1" tooltips="1" connect="1" arrows="1" fold="1" page="1" pageScale="1" pageWidth="827" pageHeight="1169" math="0" shadow="0">
      <root>
        <mxCell id="0" />
        <mxCell id="1" parent="0" />
        <mxCell id="JnEDHvphpimaNig4nGNs-16" style="edgeStyle=orthogonalEdgeStyle;shape=connector;rounded=0;orthogonalLoop=1;jettySize=auto;html=1;exitX=1;exitY=0.5;exitDx=0;exitDy=0;entryX=0;entryY=0;entryDx=0;entryDy=0;labelBackgroundColor=default;strokeColor=default;fontFamily=Helvetica;fontSize=11;fontColor=default;endArrow=open;endFill=0;startArrow=diamondThin;startFill=0;startSize=12;endSize=12;" parent="1" source="K-fdR58-RnBzx6ngiuI2-3" target="JnEDHvphpimaNig4nGNs-3" edge="1">
          <mxGeometry relative="1" as="geometry">
            <Array as="points">
              <mxPoint x="210" y="929" />
              <mxPoint x="210" y="819" />
              <mxPoint x="320" y="819" />
            </Array>
          </mxGeometry>
        </mxCell>
        <mxCell id="JnEDHvphpimaNig4nGNs-29" style="edgeStyle=orthogonalEdgeStyle;shape=connector;rounded=0;orthogonalLoop=1;jettySize=auto;html=1;entryX=1;entryY=0;entryDx=0;entryDy=0;labelBackgroundColor=default;strokeColor=default;fontFamily=Helvetica;fontSize=11;fontColor=default;startArrow=diamondThin;startFill=1;endArrow=open;endFill=0;startSize=12;endSize=12;exitX=0;exitY=0.5;exitDx=0;exitDy=0;" parent="1" source="mZIFz3YJBlj-E8MKBWUB-2" target="JnEDHvphpimaNig4nGNs-24" edge="1">
          <mxGeometry relative="1" as="geometry">
            <mxPoint x="-210" y="870" as="sourcePoint" />
            <Array as="points">
              <mxPoint x="-180" y="955" />
              <mxPoint x="-180" y="860" />
              <mxPoint x="190" y="860" />
              <mxPoint x="190" y="585" />
            </Array>
          </mxGeometry>
        </mxCell>
        <mxCell id="K-fdR58-RnBzx6ngiuI2-2" value="ConductorViewModel" style="swimlane;fontStyle=1;align=center;verticalAlign=top;childLayout=stackLayout;horizontal=1;startSize=26;horizontalStack=0;resizeParent=1;resizeParentMax=0;resizeLast=0;collapsible=1;marginBottom=0;whiteSpace=wrap;html=1;fontFamily=Helvetica;fontSize=11;fontColor=default;" parent="1" vertex="1">
          <mxGeometry x="-150" y="890" width="340" height="164" as="geometry">
            <mxRectangle x="320" y="700" width="120" height="30" as="alternateBounds" />
          </mxGeometry>
        </mxCell>
        <mxCell id="K-fdR58-RnBzx6ngiuI2-3" value="+ Conductor: ObservableCollection&amp;lt;ModelDirectoryViewModel&amp;gt;" style="text;strokeColor=none;fillColor=none;align=left;verticalAlign=top;spacingLeft=4;spacingRight=4;overflow=hidden;rotatable=0;points=[[0,0.5],[1,0.5]];portConstraint=eastwest;whiteSpace=wrap;html=1;fontSize=11;fontFamily=Helvetica;fontColor=default;" parent="K-fdR58-RnBzx6ngiuI2-2" vertex="1">
          <mxGeometry y="26" width="340" height="26" as="geometry" />
        </mxCell>
        <mxCell id="mZIFz3YJBlj-E8MKBWUB-2" value="+ Database:&amp;nbsp;Database" style="text;strokeColor=none;fillColor=none;align=left;verticalAlign=top;spacingLeft=4;spacingRight=4;overflow=hidden;rotatable=0;points=[[0,0.5],[1,0.5]];portConstraint=eastwest;whiteSpace=wrap;html=1;fontSize=11;fontFamily=Helvetica;fontColor=default;" parent="K-fdR58-RnBzx6ngiuI2-2" vertex="1">
          <mxGeometry y="52" width="340" height="26" as="geometry" />
        </mxCell>
        <mxCell id="K-fdR58-RnBzx6ngiuI2-4" value="" style="line;strokeWidth=1;fillColor=none;align=left;verticalAlign=middle;spacingTop=-1;spacingLeft=3;spacingRight=3;rotatable=0;labelPosition=right;points=[];portConstraint=eastwest;strokeColor=inherit;fontFamily=Helvetica;fontSize=11;fontColor=default;" parent="K-fdR58-RnBzx6ngiuI2-2" vertex="1">
          <mxGeometry y="78" width="340" height="8" as="geometry" />
        </mxCell>
        <mxCell id="K-fdR58-RnBzx6ngiuI2-5" value="+ Refresh(): void" style="text;strokeColor=none;fillColor=none;align=left;verticalAlign=top;spacingLeft=4;spacingRight=4;overflow=hidden;rotatable=0;points=[[0,0.5],[1,0.5]];portConstraint=eastwest;whiteSpace=wrap;html=1;fontSize=11;fontFamily=Helvetica;fontColor=default;" parent="K-fdR58-RnBzx6ngiuI2-2" vertex="1">
          <mxGeometry y="86" width="340" height="26" as="geometry" />
        </mxCell>
        <mxCell id="px4083xOL6HSA7A6O8zi-32" value="+ AddAssembly(): void" style="text;strokeColor=none;fillColor=none;align=left;verticalAlign=top;spacingLeft=4;spacingRight=4;overflow=hidden;rotatable=0;points=[[0,0.5],[1,0.5]];portConstraint=eastwest;whiteSpace=wrap;html=1;fontSize=11;fontFamily=Helvetica;fontColor=default;" parent="K-fdR58-RnBzx6ngiuI2-2" vertex="1">
          <mxGeometry y="112" width="340" height="26" as="geometry" />
        </mxCell>
        <mxCell id="px4083xOL6HSA7A6O8zi-33" value="+ AddStructure(): void" style="text;strokeColor=none;fillColor=none;align=left;verticalAlign=top;spacingLeft=4;spacingRight=4;overflow=hidden;rotatable=0;points=[[0,0.5],[1,0.5]];portConstraint=eastwest;whiteSpace=wrap;html=1;fontSize=11;fontFamily=Helvetica;fontColor=default;" parent="K-fdR58-RnBzx6ngiuI2-2" vertex="1">
          <mxGeometry y="138" width="340" height="26" as="geometry" />
        </mxCell>
        <mxCell id="JnEDHvphpimaNig4nGNs-3" value="ModelDirectoryViewModel" style="swimlane;fontStyle=1;align=center;verticalAlign=top;childLayout=stackLayout;horizontal=1;startSize=26;horizontalStack=0;resizeParent=1;resizeParentMax=0;resizeLast=0;collapsible=1;marginBottom=0;whiteSpace=wrap;html=1;fontFamily=Helvetica;fontSize=11;fontColor=default;" parent="1" vertex="1">
          <mxGeometry x="320" y="820" width="340" height="112" as="geometry">
            <mxRectangle x="320" y="700" width="120" height="30" as="alternateBounds" />
          </mxGeometry>
        </mxCell>
        <mxCell id="JnEDHvphpimaNig4nGNs-4" value="+ Database: Database" style="text;strokeColor=none;fillColor=none;align=left;verticalAlign=top;spacingLeft=4;spacingRight=4;overflow=hidden;rotatable=0;points=[[0,0.5],[1,0.5]];portConstraint=eastwest;whiteSpace=wrap;html=1;fontSize=11;fontFamily=Helvetica;fontColor=default;" parent="JnEDHvphpimaNig4nGNs-3" vertex="1">
          <mxGeometry y="26" width="340" height="26" as="geometry" />
        </mxCell>
        <mxCell id="JnEDHvphpimaNig4nGNs-7" value="+ Children: ObservableCollection&amp;lt;FieldPrototypeViewModel&amp;gt;" style="text;strokeColor=none;fillColor=none;align=left;verticalAlign=top;spacingLeft=4;spacingRight=4;overflow=hidden;rotatable=0;points=[[0,0.5],[1,0.5]];portConstraint=eastwest;whiteSpace=wrap;html=1;fontSize=11;fontFamily=Helvetica;fontColor=default;" parent="JnEDHvphpimaNig4nGNs-3" vertex="1">
          <mxGeometry y="52" width="340" height="26" as="geometry" />
        </mxCell>
        <mxCell id="JnEDHvphpimaNig4nGNs-5" value="" style="line;strokeWidth=1;fillColor=none;align=left;verticalAlign=middle;spacingTop=-1;spacingLeft=3;spacingRight=3;rotatable=0;labelPosition=right;points=[];portConstraint=eastwest;strokeColor=inherit;fontFamily=Helvetica;fontSize=11;fontColor=default;" parent="JnEDHvphpimaNig4nGNs-3" vertex="1">
          <mxGeometry y="78" width="340" height="8" as="geometry" />
        </mxCell>
        <mxCell id="JnEDHvphpimaNig4nGNs-6" value="+ LoadChildren(): void" style="text;strokeColor=none;fillColor=none;align=left;verticalAlign=top;spacingLeft=4;spacingRight=4;overflow=hidden;rotatable=0;points=[[0,0.5],[1,0.5]];portConstraint=eastwest;whiteSpace=wrap;html=1;fontSize=11;fontFamily=Helvetica;fontColor=default;" parent="JnEDHvphpimaNig4nGNs-3" vertex="1">
          <mxGeometry y="86" width="340" height="26" as="geometry" />
        </mxCell>
        <mxCell id="JnEDHvphpimaNig4nGNs-18" value="SelectObserver" style="swimlane;fontStyle=1;align=center;verticalAlign=top;childLayout=stackLayout;horizontal=1;startSize=26;horizontalStack=0;resizeParent=1;resizeParentMax=0;resizeLast=0;collapsible=1;marginBottom=0;whiteSpace=wrap;html=1;fontFamily=Helvetica;fontSize=11;fontColor=default;" parent="1" vertex="1">
          <mxGeometry x="310" y="637" width="210" height="60" as="geometry">
            <mxRectangle x="320" y="700" width="120" height="30" as="alternateBounds" />
          </mxGeometry>
        </mxCell>
        <mxCell id="JnEDHvphpimaNig4nGNs-19" value="+ SelectedPrototype:BIMAssembly" style="text;strokeColor=none;fillColor=none;align=left;verticalAlign=top;spacingLeft=4;spacingRight=4;overflow=hidden;rotatable=0;points=[[0,0.5],[1,0.5]];portConstraint=eastwest;whiteSpace=wrap;html=1;fontSize=11;fontFamily=Helvetica;fontColor=default;" parent="JnEDHvphpimaNig4nGNs-18" vertex="1">
          <mxGeometry y="26" width="210" height="26" as="geometry" />
        </mxCell>
        <mxCell id="JnEDHvphpimaNig4nGNs-21" value="" style="line;strokeWidth=1;fillColor=none;align=left;verticalAlign=middle;spacingTop=-1;spacingLeft=3;spacingRight=3;rotatable=0;labelPosition=right;points=[];portConstraint=eastwest;strokeColor=inherit;fontFamily=Helvetica;fontSize=11;fontColor=default;" parent="JnEDHvphpimaNig4nGNs-18" vertex="1">
          <mxGeometry y="52" width="210" height="8" as="geometry" />
        </mxCell>
        <mxCell id="JnEDHvphpimaNig4nGNs-24" value="Database" style="swimlane;fontStyle=1;align=center;verticalAlign=top;childLayout=stackLayout;horizontal=1;startSize=26;horizontalStack=0;resizeParent=1;resizeParentMax=0;resizeLast=0;collapsible=1;marginBottom=0;whiteSpace=wrap;html=1;fontFamily=Helvetica;fontSize=11;fontColor=default;" parent="1" vertex="1">
          <mxGeometry x="-240" y="585" width="310" height="190" as="geometry">
            <mxRectangle x="-290" y="585" width="120" height="30" as="alternateBounds" />
          </mxGeometry>
        </mxCell>
        <mxCell id="JnEDHvphpimaNig4nGNs-25" value="+ PrefixDirectory: PrefixDirectory" style="text;strokeColor=none;fillColor=none;align=left;verticalAlign=top;spacingLeft=4;spacingRight=4;overflow=hidden;rotatable=0;points=[[0,0.5],[1,0.5]];portConstraint=eastwest;whiteSpace=wrap;html=1;fontSize=11;fontFamily=Helvetica;fontColor=default;" parent="JnEDHvphpimaNig4nGNs-24" vertex="1">
          <mxGeometry y="26" width="310" height="26" as="geometry" />
        </mxCell>
        <mxCell id="JnEDHvphpimaNig4nGNs-38" value="+ InSelectObserver:&amp;nbsp;SelectObserver" style="text;strokeColor=none;fillColor=none;align=left;verticalAlign=top;spacingLeft=4;spacingRight=4;overflow=hidden;rotatable=0;points=[[0,0.5],[1,0.5]];portConstraint=eastwest;whiteSpace=wrap;html=1;fontSize=11;fontFamily=Helvetica;fontColor=default;" parent="JnEDHvphpimaNig4nGNs-24" vertex="1">
          <mxGeometry y="52" width="310" height="26" as="geometry" />
        </mxCell>
        <mxCell id="JnEDHvphpimaNig4nGNs-26" value="" style="line;strokeWidth=1;fillColor=none;align=left;verticalAlign=middle;spacingTop=-1;spacingLeft=3;spacingRight=3;rotatable=0;labelPosition=right;points=[];portConstraint=eastwest;strokeColor=inherit;fontFamily=Helvetica;fontSize=11;fontColor=default;" parent="JnEDHvphpimaNig4nGNs-24" vertex="1">
          <mxGeometry y="78" width="310" height="8" as="geometry" />
        </mxCell>
        <mxCell id="JnEDHvphpimaNig4nGNs-27" value="+ GetFieldPrototypes(ModelDirectory): List&amp;lt;FieldPrototype&amp;gt;" style="text;strokeColor=none;fillColor=none;align=left;verticalAlign=top;spacingLeft=4;spacingRight=4;overflow=hidden;rotatable=0;points=[[0,0.5],[1,0.5]];portConstraint=eastwest;whiteSpace=wrap;html=1;fontSize=11;fontFamily=Helvetica;fontColor=default;" parent="JnEDHvphpimaNig4nGNs-24" vertex="1">
          <mxGeometry y="86" width="310" height="26" as="geometry" />
        </mxCell>
        <mxCell id="61XOasOxWinUc6jk6nGq-1" value="+ GetModelDirectories(): List&amp;lt;ModelDirectory&amp;gt;" style="text;strokeColor=none;fillColor=none;align=left;verticalAlign=top;spacingLeft=4;spacingRight=4;overflow=hidden;rotatable=0;points=[[0,0.5],[1,0.5]];portConstraint=eastwest;whiteSpace=wrap;html=1;fontSize=11;fontFamily=Helvetica;fontColor=default;" parent="JnEDHvphpimaNig4nGNs-24" vertex="1">
          <mxGeometry y="112" width="310" height="26" as="geometry" />
        </mxCell>
        <mxCell id="px4083xOL6HSA7A6O8zi-1" value="+ GetFilterDirectories(FieldPrototype): List&amp;lt;FilterPrototype&amp;gt;" style="text;strokeColor=none;fillColor=none;align=left;verticalAlign=top;spacingLeft=4;spacingRight=4;overflow=hidden;rotatable=0;points=[[0,0.5],[1,0.5]];portConstraint=eastwest;whiteSpace=wrap;html=1;fontSize=11;fontFamily=Helvetica;fontColor=default;" parent="JnEDHvphpimaNig4nGNs-24" vertex="1">
          <mxGeometry y="138" width="310" height="26" as="geometry" />
        </mxCell>
        <mxCell id="px4083xOL6HSA7A6O8zi-2" value="+ LoadingPrototype(): void" style="text;strokeColor=none;fillColor=none;align=left;verticalAlign=top;spacingLeft=4;spacingRight=4;overflow=hidden;rotatable=0;points=[[0,0.5],[1,0.5]];portConstraint=eastwest;whiteSpace=wrap;html=1;fontSize=11;fontFamily=Helvetica;fontColor=default;" parent="JnEDHvphpimaNig4nGNs-24" vertex="1">
          <mxGeometry y="164" width="310" height="26" as="geometry" />
        </mxCell>
        <mxCell id="JnEDHvphpimaNig4nGNs-32" value="PrefixDirectory" style="swimlane;fontStyle=1;align=center;verticalAlign=top;childLayout=stackLayout;horizontal=1;startSize=26;horizontalStack=0;resizeParent=1;resizeParentMax=0;resizeLast=0;collapsible=1;marginBottom=0;whiteSpace=wrap;html=1;fontFamily=Helvetica;fontSize=11;fontColor=default;" parent="1" vertex="1">
          <mxGeometry x="570" y="460" width="140" height="164" as="geometry">
            <mxRectangle x="320" y="700" width="120" height="30" as="alternateBounds" />
          </mxGeometry>
        </mxCell>
        <mxCell id="JnEDHvphpimaNig4nGNs-33" value="+ ModelDirectory: string" style="text;strokeColor=none;fillColor=none;align=left;verticalAlign=top;spacingLeft=4;spacingRight=4;overflow=hidden;rotatable=0;points=[[0,0.5],[1,0.5]];portConstraint=eastwest;whiteSpace=wrap;html=1;fontSize=11;fontFamily=Helvetica;fontColor=default;" parent="JnEDHvphpimaNig4nGNs-32" vertex="1">
          <mxGeometry y="26" width="140" height="26" as="geometry" />
        </mxCell>
        <mxCell id="px4083xOL6HSA7A6O8zi-29" value="+ FieldName: string" style="text;strokeColor=none;fillColor=none;align=left;verticalAlign=top;spacingLeft=4;spacingRight=4;overflow=hidden;rotatable=0;points=[[0,0.5],[1,0.5]];portConstraint=eastwest;whiteSpace=wrap;html=1;fontSize=11;fontFamily=Helvetica;fontColor=default;" parent="JnEDHvphpimaNig4nGNs-32" vertex="1">
          <mxGeometry y="52" width="140" height="26" as="geometry" />
        </mxCell>
        <mxCell id="px4083xOL6HSA7A6O8zi-30" value="+ Prefix: string" style="text;strokeColor=none;fillColor=none;align=left;verticalAlign=top;spacingLeft=4;spacingRight=4;overflow=hidden;rotatable=0;points=[[0,0.5],[1,0.5]];portConstraint=eastwest;whiteSpace=wrap;html=1;fontSize=11;fontFamily=Helvetica;fontColor=default;" parent="JnEDHvphpimaNig4nGNs-32" vertex="1">
          <mxGeometry y="78" width="140" height="26" as="geometry" />
        </mxCell>
        <mxCell id="JnEDHvphpimaNig4nGNs-34" value="" style="line;strokeWidth=1;fillColor=none;align=left;verticalAlign=middle;spacingTop=-1;spacingLeft=3;spacingRight=3;rotatable=0;labelPosition=right;points=[];portConstraint=eastwest;strokeColor=inherit;fontFamily=Helvetica;fontSize=11;fontColor=default;" parent="JnEDHvphpimaNig4nGNs-32" vertex="1">
          <mxGeometry y="104" width="140" height="8" as="geometry" />
        </mxCell>
        <mxCell id="JnEDHvphpimaNig4nGNs-35" value="+ GetFields(string): string[]" style="text;strokeColor=none;fillColor=none;align=left;verticalAlign=top;spacingLeft=4;spacingRight=4;overflow=hidden;rotatable=0;points=[[0,0.5],[1,0.5]];portConstraint=eastwest;whiteSpace=wrap;html=1;fontSize=11;fontFamily=Helvetica;fontColor=default;" parent="JnEDHvphpimaNig4nGNs-32" vertex="1">
          <mxGeometry y="112" width="140" height="26" as="geometry" />
        </mxCell>
        <mxCell id="px4083xOL6HSA7A6O8zi-31" value="+ GetFiles(string): string[]" style="text;strokeColor=none;fillColor=none;align=left;verticalAlign=top;spacingLeft=4;spacingRight=4;overflow=hidden;rotatable=0;points=[[0,0.5],[1,0.5]];portConstraint=eastwest;whiteSpace=wrap;html=1;fontSize=11;fontFamily=Helvetica;fontColor=default;" parent="JnEDHvphpimaNig4nGNs-32" vertex="1">
          <mxGeometry y="138" width="140" height="26" as="geometry" />
        </mxCell>
        <mxCell id="61XOasOxWinUc6jk6nGq-6" value="PrototypeName" style="swimlane;fontStyle=1;align=center;verticalAlign=top;childLayout=stackLayout;horizontal=1;startSize=26;horizontalStack=0;resizeParent=1;resizeParentMax=0;resizeLast=0;collapsible=1;marginBottom=0;whiteSpace=wrap;html=1;fontFamily=Helvetica;fontSize=11;fontColor=default;" parent="1" vertex="1">
          <mxGeometry x="310" y="300" width="340" height="60" as="geometry">
            <mxRectangle x="320" y="700" width="120" height="30" as="alternateBounds" />
          </mxGeometry>
        </mxCell>
        <mxCell id="61XOasOxWinUc6jk6nGq-7" value="+ Prefix: String" style="text;strokeColor=none;fillColor=none;align=left;verticalAlign=top;spacingLeft=4;spacingRight=4;overflow=hidden;rotatable=0;points=[[0,0.5],[1,0.5]];portConstraint=eastwest;whiteSpace=wrap;html=1;fontSize=11;fontFamily=Helvetica;fontColor=default;" parent="61XOasOxWinUc6jk6nGq-6" vertex="1">
          <mxGeometry y="26" width="340" height="26" as="geometry" />
        </mxCell>
        <mxCell id="61XOasOxWinUc6jk6nGq-8" value="" style="line;strokeWidth=1;fillColor=none;align=left;verticalAlign=middle;spacingTop=-1;spacingLeft=3;spacingRight=3;rotatable=0;labelPosition=right;points=[];portConstraint=eastwest;strokeColor=inherit;fontFamily=Helvetica;fontSize=11;fontColor=default;" parent="61XOasOxWinUc6jk6nGq-6" vertex="1">
          <mxGeometry y="52" width="340" height="8" as="geometry" />
        </mxCell>
        <mxCell id="61XOasOxWinUc6jk6nGq-14" value="ModelDirectory" style="swimlane;fontStyle=1;align=center;verticalAlign=top;childLayout=stackLayout;horizontal=1;startSize=26;horizontalStack=0;resizeParent=1;resizeParentMax=0;resizeLast=0;collapsible=1;marginBottom=0;whiteSpace=wrap;html=1;fontFamily=Helvetica;fontSize=11;fontColor=default;" parent="1" vertex="1">
          <mxGeometry x="310" y="20" width="340" height="112" as="geometry">
            <mxRectangle x="320" y="700" width="120" height="30" as="alternateBounds" />
          </mxGeometry>
        </mxCell>
        <mxCell id="61XOasOxWinUc6jk6nGq-15" value="+ Fields: List&amp;lt;FieldPrototype&amp;gt;" style="text;strokeColor=none;fillColor=none;align=left;verticalAlign=top;spacingLeft=4;spacingRight=4;overflow=hidden;rotatable=0;points=[[0,0.5],[1,0.5]];portConstraint=eastwest;whiteSpace=wrap;html=1;fontSize=11;fontFamily=Helvetica;fontColor=default;" parent="61XOasOxWinUc6jk6nGq-14" vertex="1">
          <mxGeometry y="26" width="340" height="26" as="geometry" />
        </mxCell>
        <mxCell id="61XOasOxWinUc6jk6nGq-20" value="+ ModelName: String" style="text;strokeColor=none;fillColor=none;align=left;verticalAlign=top;spacingLeft=4;spacingRight=4;overflow=hidden;rotatable=0;points=[[0,0.5],[1,0.5]];portConstraint=eastwest;whiteSpace=wrap;html=1;fontSize=11;fontFamily=Helvetica;fontColor=default;" parent="61XOasOxWinUc6jk6nGq-14" vertex="1">
          <mxGeometry y="52" width="340" height="26" as="geometry" />
        </mxCell>
        <mxCell id="61XOasOxWinUc6jk6nGq-21" value="+ Path: String" style="text;strokeColor=none;fillColor=none;align=left;verticalAlign=top;spacingLeft=4;spacingRight=4;overflow=hidden;rotatable=0;points=[[0,0.5],[1,0.5]];portConstraint=eastwest;whiteSpace=wrap;html=1;fontSize=11;fontFamily=Helvetica;fontColor=default;" parent="61XOasOxWinUc6jk6nGq-14" vertex="1">
          <mxGeometry y="78" width="340" height="26" as="geometry" />
        </mxCell>
        <mxCell id="61XOasOxWinUc6jk6nGq-16" value="" style="line;strokeWidth=1;fillColor=none;align=left;verticalAlign=middle;spacingTop=-1;spacingLeft=3;spacingRight=3;rotatable=0;labelPosition=right;points=[];portConstraint=eastwest;strokeColor=inherit;fontFamily=Helvetica;fontSize=11;fontColor=default;" parent="61XOasOxWinUc6jk6nGq-14" vertex="1">
          <mxGeometry y="104" width="340" height="8" as="geometry" />
        </mxCell>
        <mxCell id="61XOasOxWinUc6jk6nGq-23" value="FilterPrototype" style="swimlane;fontStyle=1;align=center;verticalAlign=top;childLayout=stackLayout;horizontal=1;startSize=26;horizontalStack=0;resizeParent=1;resizeParentMax=0;resizeLast=0;collapsible=1;marginBottom=0;whiteSpace=wrap;html=1;fontFamily=Helvetica;fontSize=11;fontColor=default;" parent="1" vertex="1">
          <mxGeometry x="310" y="150" width="340" height="112" as="geometry">
            <mxRectangle x="320" y="700" width="120" height="30" as="alternateBounds" />
          </mxGeometry>
        </mxCell>
        <mxCell id="61XOasOxWinUc6jk6nGq-24" value="+ Prototypes: List&amp;lt;PrototypeName&amp;gt;" style="text;strokeColor=none;fillColor=none;align=left;verticalAlign=top;spacingLeft=4;spacingRight=4;overflow=hidden;rotatable=0;points=[[0,0.5],[1,0.5]];portConstraint=eastwest;whiteSpace=wrap;html=1;fontSize=11;fontFamily=Helvetica;fontColor=default;" parent="61XOasOxWinUc6jk6nGq-23" vertex="1">
          <mxGeometry y="26" width="340" height="26" as="geometry" />
        </mxCell>
        <mxCell id="61XOasOxWinUc6jk6nGq-25" value="+ Prefix: String" style="text;strokeColor=none;fillColor=none;align=left;verticalAlign=top;spacingLeft=4;spacingRight=4;overflow=hidden;rotatable=0;points=[[0,0.5],[1,0.5]];portConstraint=eastwest;whiteSpace=wrap;html=1;fontSize=11;fontFamily=Helvetica;fontColor=default;" parent="61XOasOxWinUc6jk6nGq-23" vertex="1">
          <mxGeometry y="52" width="340" height="26" as="geometry" />
        </mxCell>
        <mxCell id="61XOasOxWinUc6jk6nGq-26" value="+ _separator: char" style="text;strokeColor=none;fillColor=none;align=left;verticalAlign=top;spacingLeft=4;spacingRight=4;overflow=hidden;rotatable=0;points=[[0,0.5],[1,0.5]];portConstraint=eastwest;whiteSpace=wrap;html=1;fontSize=11;fontFamily=Helvetica;fontColor=default;" parent="61XOasOxWinUc6jk6nGq-23" vertex="1">
          <mxGeometry y="78" width="340" height="26" as="geometry" />
        </mxCell>
        <mxCell id="61XOasOxWinUc6jk6nGq-27" value="" style="line;strokeWidth=1;fillColor=none;align=left;verticalAlign=middle;spacingTop=-1;spacingLeft=3;spacingRight=3;rotatable=0;labelPosition=right;points=[];portConstraint=eastwest;strokeColor=inherit;fontFamily=Helvetica;fontSize=11;fontColor=default;" parent="61XOasOxWinUc6jk6nGq-23" vertex="1">
          <mxGeometry y="104" width="340" height="8" as="geometry" />
        </mxCell>
        <mxCell id="JnEDHvphpimaNig4nGNs-37" style="edgeStyle=orthogonalEdgeStyle;shape=connector;rounded=0;orthogonalLoop=1;jettySize=auto;html=1;labelBackgroundColor=default;strokeColor=default;fontFamily=Helvetica;fontSize=11;fontColor=default;startArrow=diamondThin;startFill=0;endArrow=open;endFill=0;startSize=12;entryX=0;entryY=0;entryDx=0;entryDy=0;exitX=1;exitY=0.5;exitDx=0;exitDy=0;endSize=12;" parent="1" source="JnEDHvphpimaNig4nGNs-38" target="JnEDHvphpimaNig4nGNs-18" edge="1">
          <mxGeometry relative="1" as="geometry">
            <mxPoint x="130" y="658" as="sourcePoint" />
            <Array as="points">
              <mxPoint x="210" y="650" />
              <mxPoint x="210" y="637" />
            </Array>
          </mxGeometry>
        </mxCell>
        <mxCell id="JnEDHvphpimaNig4nGNs-36" style="edgeStyle=orthogonalEdgeStyle;shape=connector;rounded=0;orthogonalLoop=1;jettySize=auto;html=1;exitX=1;exitY=0.5;exitDx=0;exitDy=0;labelBackgroundColor=default;strokeColor=default;fontFamily=Helvetica;fontSize=11;fontColor=default;startArrow=diamondThin;startFill=0;endArrow=open;endFill=0;startSize=12;entryX=0;entryY=0;entryDx=0;entryDy=0;endSize=12;" parent="1" source="JnEDHvphpimaNig4nGNs-25" target="JnEDHvphpimaNig4nGNs-32" edge="1">
          <mxGeometry relative="1" as="geometry">
            <mxPoint x="200" y="630" as="sourcePoint" />
            <Array as="points">
              <mxPoint x="200" y="624" />
              <mxPoint x="200" y="430" />
            </Array>
          </mxGeometry>
        </mxCell>
        <mxCell id="61XOasOxWinUc6jk6nGq-29" style="edgeStyle=orthogonalEdgeStyle;shape=connector;rounded=0;orthogonalLoop=1;jettySize=auto;html=1;exitX=1;exitY=0.5;exitDx=0;exitDy=0;entryX=1;entryY=0;entryDx=0;entryDy=0;labelBackgroundColor=default;strokeColor=default;fontFamily=Helvetica;fontSize=11;fontColor=default;startArrow=diamondThin;startFill=0;endArrow=open;endFill=0;startSize=12;endSize=12;" parent="1" source="61XOasOxWinUc6jk6nGq-24" target="61XOasOxWinUc6jk6nGq-6" edge="1">
          <mxGeometry relative="1" as="geometry">
            <Array as="points">
              <mxPoint x="730" y="189" />
              <mxPoint x="730" y="300" />
            </Array>
          </mxGeometry>
        </mxCell>
        <mxCell id="61XOasOxWinUc6jk6nGq-31" value="FieldPrototype" style="swimlane;fontStyle=1;align=center;verticalAlign=top;childLayout=stackLayout;horizontal=1;startSize=26;horizontalStack=0;resizeParent=1;resizeParentMax=0;resizeLast=0;collapsible=1;marginBottom=0;whiteSpace=wrap;html=1;fontFamily=Helvetica;fontSize=11;fontColor=default;" parent="1" vertex="1">
          <mxGeometry x="-40" y="150" width="340" height="112" as="geometry">
            <mxRectangle x="320" y="700" width="120" height="30" as="alternateBounds" />
          </mxGeometry>
        </mxCell>
        <mxCell id="61XOasOxWinUc6jk6nGq-32" value="+ Fields: List&amp;lt;PrototypeName&amp;gt;" style="text;strokeColor=none;fillColor=none;align=left;verticalAlign=top;spacingLeft=4;spacingRight=4;overflow=hidden;rotatable=0;points=[[0,0.5],[1,0.5]];portConstraint=eastwest;whiteSpace=wrap;html=1;fontSize=11;fontFamily=Helvetica;fontColor=default;" parent="61XOasOxWinUc6jk6nGq-31" vertex="1">
          <mxGeometry y="26" width="340" height="26" as="geometry" />
        </mxCell>
        <mxCell id="61XOasOxWinUc6jk6nGq-33" value="+ Name: String" style="text;strokeColor=none;fillColor=none;align=left;verticalAlign=top;spacingLeft=4;spacingRight=4;overflow=hidden;rotatable=0;points=[[0,0.5],[1,0.5]];portConstraint=eastwest;whiteSpace=wrap;html=1;fontSize=11;fontFamily=Helvetica;fontColor=default;" parent="61XOasOxWinUc6jk6nGq-31" vertex="1">
          <mxGeometry y="52" width="340" height="26" as="geometry" />
        </mxCell>
        <mxCell id="61XOasOxWinUc6jk6nGq-34" value="+ Path: String" style="text;strokeColor=none;fillColor=none;align=left;verticalAlign=top;spacingLeft=4;spacingRight=4;overflow=hidden;rotatable=0;points=[[0,0.5],[1,0.5]];portConstraint=eastwest;whiteSpace=wrap;html=1;fontSize=11;fontFamily=Helvetica;fontColor=default;" parent="61XOasOxWinUc6jk6nGq-31" vertex="1">
          <mxGeometry y="78" width="340" height="26" as="geometry" />
        </mxCell>
        <mxCell id="61XOasOxWinUc6jk6nGq-35" value="" style="line;strokeWidth=1;fillColor=none;align=left;verticalAlign=middle;spacingTop=-1;spacingLeft=3;spacingRight=3;rotatable=0;labelPosition=right;points=[];portConstraint=eastwest;strokeColor=inherit;fontFamily=Helvetica;fontSize=11;fontColor=default;" parent="61XOasOxWinUc6jk6nGq-31" vertex="1">
          <mxGeometry y="104" width="340" height="8" as="geometry" />
        </mxCell>
        <mxCell id="61XOasOxWinUc6jk6nGq-36" style="edgeStyle=orthogonalEdgeStyle;shape=connector;rounded=0;orthogonalLoop=1;jettySize=auto;html=1;exitX=0;exitY=0.5;exitDx=0;exitDy=0;labelBackgroundColor=default;strokeColor=default;fontFamily=Helvetica;fontSize=11;fontColor=default;startArrow=diamondThin;startFill=0;endArrow=open;endFill=0;startSize=12;endSize=12;" parent="1" source="61XOasOxWinUc6jk6nGq-15" target="61XOasOxWinUc6jk6nGq-31" edge="1">
          <mxGeometry relative="1" as="geometry" />
        </mxCell>
        <mxCell id="61XOasOxWinUc6jk6nGq-37" style="edgeStyle=orthogonalEdgeStyle;shape=connector;rounded=0;orthogonalLoop=1;jettySize=auto;html=1;exitX=0;exitY=0.5;exitDx=0;exitDy=0;entryX=0;entryY=0;entryDx=0;entryDy=0;labelBackgroundColor=default;strokeColor=default;fontFamily=Helvetica;fontSize=11;fontColor=default;startArrow=diamondThin;startFill=0;endArrow=open;endFill=0;startSize=12;endSize=12;" parent="1" source="61XOasOxWinUc6jk6nGq-32" target="61XOasOxWinUc6jk6nGq-6" edge="1">
          <mxGeometry relative="1" as="geometry">
            <Array as="points">
              <mxPoint x="-70" y="189" />
              <mxPoint x="-70" y="280" />
              <mxPoint x="310" y="280" />
            </Array>
          </mxGeometry>
        </mxCell>
        <mxCell id="61XOasOxWinUc6jk6nGq-39" value="Model" style="shape=umlFrame;whiteSpace=wrap;html=1;pointerEvents=0;fontFamily=Helvetica;fontSize=11;fontColor=default;" parent="1" vertex="1">
          <mxGeometry x="-110" y="-40" width="890" height="440" as="geometry" />
        </mxCell>
        <mxCell id="61XOasOxWinUc6jk6nGq-40" value="ViewModel" style="shape=umlFrame;whiteSpace=wrap;html=1;pointerEvents=0;fontFamily=Helvetica;fontSize=11;fontColor=default;width=100;height=30;" parent="1" vertex="1">
          <mxGeometry x="260" y="750" width="480" height="490" as="geometry" />
        </mxCell>
        <mxCell id="mZIFz3YJBlj-E8MKBWUB-1" style="edgeStyle=orthogonalEdgeStyle;shape=connector;rounded=0;orthogonalLoop=1;jettySize=auto;html=1;exitX=0;exitY=0.5;exitDx=0;exitDy=0;entryX=0.75;entryY=0;entryDx=0;entryDy=0;labelBackgroundColor=default;strokeColor=default;fontFamily=Helvetica;fontSize=11;fontColor=default;startArrow=diamondThin;startFill=0;endArrow=open;endFill=0;startSize=12;endSize=12;" parent="1" source="JnEDHvphpimaNig4nGNs-4" target="JnEDHvphpimaNig4nGNs-24" edge="1">
          <mxGeometry relative="1" as="geometry">
            <Array as="points">
              <mxPoint x="230" y="859" />
              <mxPoint x="230" y="555" />
              <mxPoint x="-7" y="555" />
            </Array>
          </mxGeometry>
        </mxCell>
        <mxCell id="px4083xOL6HSA7A6O8zi-9" style="edgeStyle=orthogonalEdgeStyle;shape=connector;rounded=0;orthogonalLoop=1;jettySize=auto;html=1;exitX=1;exitY=0;exitDx=0;exitDy=0;entryX=0;entryY=0.5;entryDx=0;entryDy=0;labelBackgroundColor=default;strokeColor=default;fontFamily=Helvetica;fontSize=11;fontColor=default;startArrow=none;startFill=0;endArrow=open;endFill=0;startSize=12;endSize=12;" parent="1" source="px4083xOL6HSA7A6O8zi-4" target="px4083xOL6HSA7A6O8zi-2" edge="1">
          <mxGeometry relative="1" as="geometry">
            <Array as="points">
              <mxPoint x="-310" y="460" />
              <mxPoint x="-310" y="762" />
            </Array>
          </mxGeometry>
        </mxCell>
        <mxCell id="px4083xOL6HSA7A6O8zi-4" value="BeamLoader" style="swimlane;fontStyle=1;align=center;verticalAlign=top;childLayout=stackLayout;horizontal=1;startSize=26;horizontalStack=0;resizeParent=1;resizeParentMax=0;resizeLast=0;collapsible=1;marginBottom=0;whiteSpace=wrap;html=1;fontFamily=Helvetica;fontSize=11;fontColor=default;" parent="1" vertex="1">
          <mxGeometry x="-620" y="460" width="280" height="198" as="geometry">
            <mxRectangle x="320" y="700" width="120" height="30" as="alternateBounds" />
          </mxGeometry>
        </mxCell>
        <mxCell id="px4083xOL6HSA7A6O8zi-7" value="+ PrefixDirectory: PrefixDirectory" style="text;strokeColor=none;fillColor=none;align=left;verticalAlign=top;spacingLeft=4;spacingRight=4;overflow=hidden;rotatable=0;points=[[0,0.5],[1,0.5]];portConstraint=eastwest;whiteSpace=wrap;html=1;fontSize=11;fontFamily=Helvetica;fontColor=default;" parent="px4083xOL6HSA7A6O8zi-4" vertex="1">
          <mxGeometry y="26" width="280" height="26" as="geometry" />
        </mxCell>
        <mxCell id="px4083xOL6HSA7A6O8zi-11" value="+ InBIMAssembly: BIMAssembly" style="text;strokeColor=none;fillColor=none;align=left;verticalAlign=top;spacingLeft=4;spacingRight=4;overflow=hidden;rotatable=0;points=[[0,0.5],[1,0.5]];portConstraint=eastwest;whiteSpace=wrap;html=1;fontSize=11;fontFamily=Helvetica;fontColor=default;" parent="px4083xOL6HSA7A6O8zi-4" vertex="1">
          <mxGeometry y="52" width="280" height="26" as="geometry" />
        </mxCell>
        <mxCell id="px4083xOL6HSA7A6O8zi-12" value="+ Path: string" style="text;strokeColor=none;fillColor=none;align=left;verticalAlign=top;spacingLeft=4;spacingRight=4;overflow=hidden;rotatable=0;points=[[0,0.5],[1,0.5]];portConstraint=eastwest;whiteSpace=wrap;html=1;fontSize=11;fontFamily=Helvetica;fontColor=default;" parent="px4083xOL6HSA7A6O8zi-4" vertex="1">
          <mxGeometry y="78" width="280" height="26" as="geometry" />
        </mxCell>
        <mxCell id="px4083xOL6HSA7A6O8zi-6" value="" style="line;strokeWidth=1;fillColor=none;align=left;verticalAlign=middle;spacingTop=-1;spacingLeft=3;spacingRight=3;rotatable=0;labelPosition=right;points=[];portConstraint=eastwest;strokeColor=inherit;fontFamily=Helvetica;fontSize=11;fontColor=default;" parent="px4083xOL6HSA7A6O8zi-4" vertex="1">
          <mxGeometry y="104" width="280" height="8" as="geometry" />
        </mxCell>
        <mxCell id="px4083xOL6HSA7A6O8zi-10" value="+ DeserializeXML(): void" style="text;strokeColor=none;fillColor=none;align=left;verticalAlign=top;spacingLeft=4;spacingRight=4;overflow=hidden;rotatable=0;points=[[0,0.5],[1,0.5]];portConstraint=eastwest;whiteSpace=wrap;html=1;fontSize=11;fontFamily=Helvetica;fontColor=default;" parent="px4083xOL6HSA7A6O8zi-4" vertex="1">
          <mxGeometry y="112" width="280" height="26" as="geometry" />
        </mxCell>
        <mxCell id="px4083xOL6HSA7A6O8zi-34" value="+ SerializeXMLStructure(List&amp;lt;TSM.Assembly&amp;gt;): void" style="text;strokeColor=none;fillColor=none;align=left;verticalAlign=top;spacingLeft=4;spacingRight=4;overflow=hidden;rotatable=0;points=[[0,0.5],[1,0.5]];portConstraint=eastwest;whiteSpace=wrap;html=1;fontSize=11;fontFamily=Helvetica;fontColor=default;" parent="px4083xOL6HSA7A6O8zi-4" vertex="1">
          <mxGeometry y="138" width="280" height="26" as="geometry" />
        </mxCell>
        <mxCell id="px4083xOL6HSA7A6O8zi-13" value="+ SerializeXML(): void" style="text;strokeColor=none;fillColor=none;align=left;verticalAlign=top;spacingLeft=4;spacingRight=4;overflow=hidden;rotatable=0;points=[[0,0.5],[1,0.5]];portConstraint=eastwest;whiteSpace=wrap;html=1;fontSize=11;fontFamily=Helvetica;fontColor=default;" parent="px4083xOL6HSA7A6O8zi-4" vertex="1">
          <mxGeometry y="164" width="280" height="26" as="geometry" />
        </mxCell>
        <mxCell id="px4083xOL6HSA7A6O8zi-35" value="" style="line;strokeWidth=1;fillColor=none;align=left;verticalAlign=middle;spacingTop=-1;spacingLeft=3;spacingRight=3;rotatable=0;labelPosition=right;points=[];portConstraint=eastwest;strokeColor=inherit;fontFamily=Helvetica;fontSize=11;fontColor=default;" parent="px4083xOL6HSA7A6O8zi-4" vertex="1">
          <mxGeometry y="190" width="280" height="8" as="geometry" />
        </mxCell>
        <mxCell id="px4083xOL6HSA7A6O8zi-8" style="edgeStyle=orthogonalEdgeStyle;shape=connector;rounded=0;orthogonalLoop=1;jettySize=auto;html=1;exitX=1;exitY=0.5;exitDx=0;exitDy=0;entryX=0.25;entryY=0;entryDx=0;entryDy=0;labelBackgroundColor=default;strokeColor=default;fontFamily=Helvetica;fontSize=11;fontColor=default;startArrow=diamondThin;startFill=0;endArrow=open;endFill=0;startSize=12;endSize=12;" parent="1" source="px4083xOL6HSA7A6O8zi-7" target="JnEDHvphpimaNig4nGNs-32" edge="1">
          <mxGeometry relative="1" as="geometry">
            <Array as="points">
              <mxPoint x="-15" y="499" />
              <mxPoint x="-15" y="420" />
              <mxPoint x="605" y="420" />
            </Array>
          </mxGeometry>
        </mxCell>
        <mxCell id="px4083xOL6HSA7A6O8zi-14" style="edgeStyle=orthogonalEdgeStyle;shape=connector;rounded=0;orthogonalLoop=1;jettySize=auto;html=1;exitX=1;exitY=0.5;exitDx=0;exitDy=0;labelBackgroundColor=default;strokeColor=default;fontFamily=Helvetica;fontSize=11;fontColor=default;startArrow=none;startFill=0;endArrow=open;endFill=0;startSize=12;endSize=12;entryX=0;entryY=0.5;entryDx=0;entryDy=0;" parent="1" source="px4083xOL6HSA7A6O8zi-2" target="JnEDHvphpimaNig4nGNs-19" edge="1">
          <mxGeometry relative="1" as="geometry">
            <Array as="points">
              <mxPoint x="220" y="762" />
              <mxPoint x="220" y="676" />
            </Array>
            <mxPoint x="290" y="670" as="targetPoint" />
          </mxGeometry>
        </mxCell>
        <mxCell id="px4083xOL6HSA7A6O8zi-15" value="FieldPrototypeViewModel" style="swimlane;fontStyle=1;align=center;verticalAlign=top;childLayout=stackLayout;horizontal=1;startSize=26;horizontalStack=0;resizeParent=1;resizeParentMax=0;resizeLast=0;collapsible=1;marginBottom=0;whiteSpace=wrap;html=1;fontFamily=Helvetica;fontSize=11;fontColor=default;" parent="1" vertex="1">
          <mxGeometry x="320" y="960" width="340" height="112" as="geometry">
            <mxRectangle x="320" y="700" width="120" height="30" as="alternateBounds" />
          </mxGeometry>
        </mxCell>
        <mxCell id="px4083xOL6HSA7A6O8zi-16" value="+ Database: Database" style="text;strokeColor=none;fillColor=none;align=left;verticalAlign=top;spacingLeft=4;spacingRight=4;overflow=hidden;rotatable=0;points=[[0,0.5],[1,0.5]];portConstraint=eastwest;whiteSpace=wrap;html=1;fontSize=11;fontFamily=Helvetica;fontColor=default;" parent="px4083xOL6HSA7A6O8zi-15" vertex="1">
          <mxGeometry y="26" width="340" height="26" as="geometry" />
        </mxCell>
        <mxCell id="px4083xOL6HSA7A6O8zi-17" value="+ Children: ObservableCollection&amp;lt;PrototypeNameViewModel&amp;gt;" style="text;strokeColor=none;fillColor=none;align=left;verticalAlign=top;spacingLeft=4;spacingRight=4;overflow=hidden;rotatable=0;points=[[0,0.5],[1,0.5]];portConstraint=eastwest;whiteSpace=wrap;html=1;fontSize=11;fontFamily=Helvetica;fontColor=default;" parent="px4083xOL6HSA7A6O8zi-15" vertex="1">
          <mxGeometry y="52" width="340" height="26" as="geometry" />
        </mxCell>
        <mxCell id="px4083xOL6HSA7A6O8zi-18" value="" style="line;strokeWidth=1;fillColor=none;align=left;verticalAlign=middle;spacingTop=-1;spacingLeft=3;spacingRight=3;rotatable=0;labelPosition=right;points=[];portConstraint=eastwest;strokeColor=inherit;fontFamily=Helvetica;fontSize=11;fontColor=default;" parent="px4083xOL6HSA7A6O8zi-15" vertex="1">
          <mxGeometry y="78" width="340" height="8" as="geometry" />
        </mxCell>
        <mxCell id="px4083xOL6HSA7A6O8zi-19" value="+ LoadChildren(): void" style="text;strokeColor=none;fillColor=none;align=left;verticalAlign=top;spacingLeft=4;spacingRight=4;overflow=hidden;rotatable=0;points=[[0,0.5],[1,0.5]];portConstraint=eastwest;whiteSpace=wrap;html=1;fontSize=11;fontFamily=Helvetica;fontColor=default;" parent="px4083xOL6HSA7A6O8zi-15" vertex="1">
          <mxGeometry y="86" width="340" height="26" as="geometry" />
        </mxCell>
        <mxCell id="px4083xOL6HSA7A6O8zi-20" style="edgeStyle=orthogonalEdgeStyle;shape=connector;rounded=0;orthogonalLoop=1;jettySize=auto;html=1;exitX=1;exitY=0.5;exitDx=0;exitDy=0;entryX=1;entryY=0;entryDx=0;entryDy=0;labelBackgroundColor=default;strokeColor=default;fontFamily=Helvetica;fontSize=11;fontColor=default;startArrow=diamondThin;startFill=0;endArrow=open;endFill=0;startSize=12;endSize=12;" parent="1" source="JnEDHvphpimaNig4nGNs-7" target="px4083xOL6HSA7A6O8zi-15" edge="1">
          <mxGeometry relative="1" as="geometry">
            <Array as="points">
              <mxPoint x="690" y="885" />
              <mxPoint x="690" y="960" />
            </Array>
          </mxGeometry>
        </mxCell>
        <mxCell id="px4083xOL6HSA7A6O8zi-21" value="PrototypeNameViewModel" style="swimlane;fontStyle=1;align=center;verticalAlign=top;childLayout=stackLayout;horizontal=1;startSize=26;horizontalStack=0;resizeParent=1;resizeParentMax=0;resizeLast=0;collapsible=1;marginBottom=0;whiteSpace=wrap;html=1;fontFamily=Helvetica;fontSize=11;fontColor=default;" parent="1" vertex="1">
          <mxGeometry x="320" y="1090" width="340" height="112" as="geometry">
            <mxRectangle x="320" y="700" width="120" height="30" as="alternateBounds" />
          </mxGeometry>
        </mxCell>
        <mxCell id="px4083xOL6HSA7A6O8zi-22" value="+ Database: Database" style="text;strokeColor=none;fillColor=none;align=left;verticalAlign=top;spacingLeft=4;spacingRight=4;overflow=hidden;rotatable=0;points=[[0,0.5],[1,0.5]];portConstraint=eastwest;whiteSpace=wrap;html=1;fontSize=11;fontFamily=Helvetica;fontColor=default;" parent="px4083xOL6HSA7A6O8zi-21" vertex="1">
          <mxGeometry y="26" width="340" height="26" as="geometry" />
        </mxCell>
        <mxCell id="px4083xOL6HSA7A6O8zi-23" value="+ Children: ObservableCollection&amp;lt;PrototypeNameViewModel&amp;gt;" style="text;strokeColor=none;fillColor=none;align=left;verticalAlign=top;spacingLeft=4;spacingRight=4;overflow=hidden;rotatable=0;points=[[0,0.5],[1,0.5]];portConstraint=eastwest;whiteSpace=wrap;html=1;fontSize=11;fontFamily=Helvetica;fontColor=default;" parent="px4083xOL6HSA7A6O8zi-21" vertex="1">
          <mxGeometry y="52" width="340" height="26" as="geometry" />
        </mxCell>
        <mxCell id="px4083xOL6HSA7A6O8zi-24" value="" style="line;strokeWidth=1;fillColor=none;align=left;verticalAlign=middle;spacingTop=-1;spacingLeft=3;spacingRight=3;rotatable=0;labelPosition=right;points=[];portConstraint=eastwest;strokeColor=inherit;fontFamily=Helvetica;fontSize=11;fontColor=default;" parent="px4083xOL6HSA7A6O8zi-21" vertex="1">
          <mxGeometry y="78" width="340" height="8" as="geometry" />
        </mxCell>
        <mxCell id="px4083xOL6HSA7A6O8zi-25" value="+ LoadChildren(): void" style="text;strokeColor=none;fillColor=none;align=left;verticalAlign=top;spacingLeft=4;spacingRight=4;overflow=hidden;rotatable=0;points=[[0,0.5],[1,0.5]];portConstraint=eastwest;whiteSpace=wrap;html=1;fontSize=11;fontFamily=Helvetica;fontColor=default;" parent="px4083xOL6HSA7A6O8zi-21" vertex="1">
          <mxGeometry y="86" width="340" height="26" as="geometry" />
        </mxCell>
        <mxCell id="px4083xOL6HSA7A6O8zi-26" style="edgeStyle=orthogonalEdgeStyle;shape=connector;rounded=0;orthogonalLoop=1;jettySize=auto;html=1;exitX=1;exitY=0.5;exitDx=0;exitDy=0;entryX=1;entryY=0;entryDx=0;entryDy=0;labelBackgroundColor=default;strokeColor=default;fontFamily=Helvetica;fontSize=11;fontColor=default;startArrow=diamondThin;startFill=0;endArrow=open;endFill=0;startSize=12;endSize=12;" parent="1" source="px4083xOL6HSA7A6O8zi-17" target="px4083xOL6HSA7A6O8zi-21" edge="1">
          <mxGeometry relative="1" as="geometry">
            <Array as="points">
              <mxPoint x="690" y="1025" />
              <mxPoint x="690" y="1090" />
            </Array>
          </mxGeometry>
        </mxCell>
        <mxCell id="A2Wa13L-4fYUl3bMO7yg-1" value="&amp;lt;&amp;lt;Enum&amp;gt;&amp;gt;BIMType" style="swimlane;fontStyle=1;align=center;verticalAlign=top;childLayout=stackLayout;horizontal=1;startSize=26;horizontalStack=0;resizeParent=1;resizeParentMax=0;resizeLast=0;collapsible=1;marginBottom=0;whiteSpace=wrap;html=1;fontFamily=Helvetica;fontSize=11;fontColor=default;" parent="1" vertex="1">
          <mxGeometry x="740" y="460" width="140" height="110" as="geometry">
            <mxRectangle x="320" y="700" width="120" height="30" as="alternateBounds" />
          </mxGeometry>
        </mxCell>
        <mxCell id="A2Wa13L-4fYUl3bMO7yg-2" value="&lt;div&gt;BIMAssembly = 0,&lt;/div&gt;&lt;div&gt;BIMStructure = 1,&lt;/div&gt;&lt;div&gt;BIMJoint = 2,&lt;/div&gt;&lt;div&gt;BIMPart = 3,&lt;/div&gt;&lt;div&gt;Error = 10,&lt;/div&gt;" style="text;strokeColor=none;fillColor=none;align=left;verticalAlign=top;spacingLeft=4;spacingRight=4;overflow=hidden;rotatable=0;points=[[0,0.5],[1,0.5]];portConstraint=eastwest;whiteSpace=wrap;html=1;fontSize=11;fontFamily=Helvetica;fontColor=default;" parent="A2Wa13L-4fYUl3bMO7yg-1" vertex="1">
          <mxGeometry y="26" width="140" height="84" as="geometry" />
        </mxCell>
        <mxCell id="zGH-fdnbtsjzChdT_l6H-2" value="Инструкция хранения типов файлов." style="text;strokeColor=none;fillColor=none;align=left;verticalAlign=top;spacingLeft=4;spacingRight=4;overflow=hidden;rotatable=0;points=[[0,0.5],[1,0.5]];portConstraint=eastwest;whiteSpace=wrap;html=1;fontSize=11;fontFamily=Helvetica;fontColor=default;" parent="1" vertex="1">
          <mxGeometry x="730" y="585" width="140" height="45" as="geometry" />
        </mxCell>
        <mxCell id="aRQlpW16Os5aKEdNBU-P-2" value="" style="shape=image;verticalLabelPosition=bottom;labelBackgroundColor=default;verticalAlign=top;aspect=fixed;imageAspect=0;image=data:image/png,iVBORw0KGgoAAAANSUhEUgAAAfQAAAFhCAYAAACGfVh6AAAAAXNSR0IArs4c6QAAAARnQU1BAACxjwv8YQUAAAAJcEhZcwAADsMAAA7DAcdvqGQAABETSURBVHhe7d2hdxr53sDhL69fs35dWNET11VgauGaqp7r6ogMZt3KuhqQiYtdcU/MBVsT1NblVJS49WvuH9B3JkwakkCTEJLMfPM857AZwnTK9hf4ML8ZSOtbIQCARvu/6isA0GCCDgAJCDoAJCDoAJCAoANAAoIOAAkIOgAkIOgAkICgA0ACgg4ACfjoV4AX7k3vc7XEY/s0fV0tbd+TBP2fX9rVEk/l57/n1dLj8STwfB7zSWGZMX5+2x5rY1pP2xjnrQddvOtr08h7AmiGhzwhGOPmuc94G99m2fSxvJWgi3jz3CXungSa6y5PCMY3j3XjfdcxfsiLQe7vscblQUG/a8ifYvqXS/d5gbVqbDwJ1Nt9QrxqjB7653lam47Xuj9nTOtpG+O1cdDXRUO86+lHkV8eM08CzXWXsTO+Oawbx1I5ltdvN77Nsun4bRT0VXEQ8uZYN36eBPJYNZbGN6fr43qdcW6m5XG96xg++H3oZQjEvFnuMmaeBJrttvEzvnmUY2k8KflgGQBIQNABIAFBB4AEBB0AEhB0AEhA0AEgAUEHgAQEHQASEHQASEDQASABQQeABAQdABIQdABIQNABIAFBB4AEBB0AEhB0AEhA0AEgAUEHgAQEnZXe9D6fX2geY8cyPw/N8pDxan0rVMt39s8v7Wop4ue/59USTbNqHH/0g/Rp+rpaom7uMm6r1jGmzbduXD2Wm2NbY/XgoF8Q9ua4bfx+9MO1jieIx7eNcfEkn8Ndx/G+PzN+Bh7PUzyvbhT00qooXBD3+tlkvDb5AaQefvREsOm4erJ/OtseI4/lZtn0sbZx0Es/isQqQv+47jsepbuOiSeEetvkCcCY5nDfsTfu9bOtF8sPCvqFTULC89r2iytPEo9rWw/4HzGGzfGYPw9+Dh7HUzyGtxL06wS+fsyO8FCe6J/OUzz5k8+jBP1HxP5xCDbAy/bkQQcAts8HywBAAoIOAAkIOgAkIOgAkICgA0ACgg4ACQg6ACQg6ACQgA+WgRdk+eNbfbwo5LJR0H2mMwA8vvu88DblDgAJCDoAJPDgKXfH4aA5PHah/jZ9nNpDB4AEBB0AEnjQlPunP387/woAbM+bd3+dfzXlDgAvjKADQALbm3L/yQfOQd05yx1q7H+tasGUOwC8WIIOAAkIOgAkIOgAkICgA0ACgg4ACQg6ACTwzEGfxl6rFa21l26Mz6pVAYC1arGHPph8i/Lzba5c5qPoxCy+zKuVAIC1TLlXswR70+oqADSQoANAAoJeOf06jbMzB+wBaKaGBX3VSXTd2JteD/FZTMfd6F6s092L66ucjfeq2/txWFyfDfvRbrer7S3WubRqWn75eytuPxufb7975ay+Yr3uxf1eXEz1A7ANjdxDv3IS3WQ3Dvvvr5wNP91rR3+4G3/My3XmMdk9jH67iHp1+1kR+/YwqtsnMSi+t9hmse5gVmzvct2NlDEv/oLZYBJH+zsX34xxt3jxsDuJ+dLJfwe96mYAeIDmT7n33hZBXj4bfhrHxS73YHIQvfOW7kTvoIz2YRxXe9Mfh7PojH6vbl9WrPt7eXb9xbobWIr5vKj15V8xjy+z4n69Xf4eAGzHiz2Gvvvrmqzu/Bq71eK9fa1i3hldizkAPK60QT/sLx+rXhwnf2yHwzLmnYjZn/Ff59cB8ITSBn3Vh9U8+vHqcpr95ChGnVkM349D0wF4Ki92yv3065rcnn2N0+jEq3Z1/R4Wx8d3Yv9kEoPZMNpOYQfgiTQ/6NPjOLwS4Ha86kQcHk/X7CH34vdRJ2bDjzfeylaeiT79WE6bv4t/XTkAvtjm6Z3PlOvFwWRQzvsvvS3ttvsFAJuredBX7ylfOT7eP43B5Ci+vzus3EM+KvaQT/vR/n4MfXG5iOvO/knMRxEf2uX3F8fXF9tsx4cYxfxk/9oJbYtt7hbbvNzeLcflewdx3vTvLwKqPfdr98tOPADb0PpWHly+pze9z+dfP/352/nXcz/dezMbKD/ApR8x2ebx8MfYJtTTxWO39Gn6uloCauF/rWqheKy+++v8630epy/2GDoAZCLoAJCAoANAAg0Lei8Otv5+8sfYJgA8LXvoAJCAoANAAoIOAAkIOgAkIOgAkICgA0ACgg4ACWzvs9wBgK3wWe4AkMAmO8yCDgAJPCjoF1MCAMDzetAx9NLT/050YFN+HzrU3LXfie4YOgC8MIIOAAkIOgAkIOgAkICgA0ACgg4ACQg6ACQg6ACQgKADQAI1CPo09lqt2JtWV5edjaPb6sb4rLoOAKzUgD30WXyZV4sAwEq1Dvr047DIOQBwm/oGfboX/cNqGQD4oZoGfRp7ag4Ad1bLoE/3+nEYnRhNRsV/ly1OoGt1x3H9PLnpXvH9VSfXnRV/pru4bfmy8iQ8AGio+gX9bBwfip3zzugo9tvV966bDaO9XOS10/NnMX5fvDjYnUT5a98Xl0kMqlsBIIuaBb0M8DBmnVEc7e9U37tpMCiSfNhf7GWXb20ra97pXNubL83jy6xY/22vug4AOdUq6Gfj9zGcdWJ0tB/rc154exDzUadoeje67cULgPnRu+rGZe14VVT+8Hh6Y4oeADKpT9C/juP9cLaYav9hzRd29o9i1JnFLAYxOVn3AmAn9k/mMYoP0f5+/Lw8Pg8AudQm6IfD26far1rEejI/iB9PqBfrHfyxOG4+KI+lO4YOQD41mnK/w1T7DTvRu/UPnMW4W+yVl9PyB46lA5BTbYJ+16n2+7rzcXkAaLDaBH3313W57cSrdW9fu9U0Pg5nMZicPMqLBQCoi9a38s3Z9/Sm97laivj052/VUuGne28KeEJXHrvT19USUBv/a1ULxeP13V/3epzW6Bg6ALApQQeABAQdABIQdABIQNABIAFBB4AEBB0AEhB0AEhgux8sAzTGP698fCLU0c9fFr/w2wfLAMALtHHQyz1ze+cAUA8bT7mLOTTb8pT7xRQf8DxWPR5NuQPAC7SdPXS/ZQ0aYfmE1v+c/rtaKvYI/p5XS8Bz+OeXy98Tbg8dAF4wQQeABAQdABIQdABIQNABIAFBB4AEBB0AEqhJ0Kex12rF3rS6uuxsHN1WN8Y+yAoA1mrIHvosvvjcCwBYy5Q7ACQg6ACQgKADQAINDvpZTMfd6LZa0Sou3e44pt9PnFucZNcqvnf9XLrp3mL9myfgXd1eq7u3tL1Stc0rl26xHWfrAfD8ahX0w/71YBaX9jBm1e3Lpnvt6A9344/5t/j2bR5/7A6j3y4iXN1+bjaM9nK5p3vRP6yWr7m+vcnu4c3tFQaT8vbqMtkt7vN7Z+AD8OxqFfQrsby4zEfRqW6/NI3jIsyDyUH0zn8n/E70DiYxiMM4XirwYDAoXyUs9sbLt7+VNe90Nt7eDb23xTrOwAfg+eU+hv72IOajTtH0bnTLPf3OKOZH76obASCP9CfF7ewfxagzK/ajBzE52S/2vde7OuXfL/bPAaAZ0ge9nD7fP5nHZH4Qveo766ya8j+47Q8BQA28gKCXdqpj4wCQU0OD3ou35+e7Xby17Cyme+UU+SDebrRH3Y5XnWJ7x9Mbb3P7oelx8Xd24lW7ug4Az6QhQb8Zzd7BPCaj0/jQLo93t+PD6ehO0+qr7cT+0SQGp/1oL79lrrhcf7/6lePs/dMYTI5i394/AM+s9a08UHxPb3qf49Ofv1XXCj/dexMNVH6wTD9i4rg6zVU+di/85/Tf1VLEz3977yU8p39+udxr/fnLYq74zbu/4tP09fnyXbyQY+gAkJugA0ACgg4ACTiGDi/IumPoQH04hg4AL5igA0AC25lyBwC2ypQ7ALxAgg4ACWw85X7hPtMBwPPy2IX62/Rxag8dABIQdABIQNABIAFBB4AEahD08teSLv2O8RuXbowXn4IHAKxRmz30weRblCfcX7nMR9GJWXzxq5oB4IdMudfaYvZib1pdBYA1BB0AEhD0Bjj9Oo2zMycSALBeQ4N+FtNxN7rViXPd7jimV3o3jb3u1ZPrLqetbz8J7+YU96o/U663/JfeZZ3S1fve6u5du+/FGuO96vZ+HBbXZ8N+tNvtanuLdS6tmpZf/t6K28/G59vvXjnbsFhv7b8ZAHXXyKBP99rRH+7GH/Py5Ll5/LE7jH67COP5rWcx7hYh3J3EfOkEu4Pe+Y3fXZ6EN4nB0vX5ZDcO+6vPrL9y4t78XZz2399Y78o659u6us71+z7ZPVy672Vru9EeRnX78n0r1h3Miu1drruRMubFXzAbTOJof+fim3f6NwOgvhoY9GkcF7utg8lB9M57tBO9gzJ8h3F8Xrp5fJkVt7/tFbfc307vbbGtO5xZv/Nr7N623o1t3Xbfp/FxOIvO6Pfq9mXFur+XZ/1frLuBpZjPi1pf/hUP+zcD4Pk5hl5Du7+uyer5i4gNfa1i3hldizkAGQj6MzjsLx+rXhwnf2yHwzLmnYjZn/HfFYcTAGg2QX8GV46zP9Xx6nKa/eQoRp1ZDN+PQ9MBchH0Gjr9uia3Z1/jNDrxql1dv4fF8fGd2D+ZxGA2jLZT2AFSaWDQe/F2UE5bX7zd6yyme+W09SCKZhXa8apT3H48ff690Olxcb+WA3zbfevF76NOzIYfb7yV7fz/82M5bf4u/nXlAPhim6d3PlOuFweT83/Apbel1ejfDICNNCDoN/dIewfzmIxO40O7PAbdjg+no5jMD4pUlaq90NN+tJ/hPdVXjo/3T2MwOYrv7w4r79vRzfu2fP929k9iPorq/21xfH2xzeL/M0YxP9m/dkLbYpu7xTYvt3fLcfneQZw3/fuLgOf9NwPg4VrfygO49/Sm97laivg0fV0tvXTlB7j0IybbPB7+GNvkJfPYhfrb9HHqGDoAJCDoAJCAoANAAoK+Nb042Pr7yR9jmwBkJOgAkICgA0ACgg4ACQg6ACQg6ACQgKADQAKCDgAJCDoAJCDoAJCAoANAAoIOAAkIOgAkIOgAkICgA0ACgg4ACQg6ACQg6ACQgKADQAKCDgAJCDoAJCDoAJCAoANAAoIOAAkIOgAkIOgAkICgA0ACgg4ACQg6ACQg6ACQgKADQAKCDgAJCDoAJCDoAJCAoANAAoIOAAkIOgAkIOgAkICgA0ACgg4ACQg6ACQg6ACQgKADQAKCDgAJCDoAJCDoAJCAoANAAoIOAAkIOgAkIOgAkICgA0ACgg4ACQg6ACQg6ACQgKADQAKCDgAJCDoAJCDoAJCAoANAAoIOAAkIOgAkIOgAkICgA0ACgg4ACQg6ACQg6ACQgKADQAKCDgAJCDoAJCDoAJCAoANAAoIOAAkIOgAkIOgAkICgA0ACgg4ACQg6ACQg6ACQgKADQAKCDgAJCDoAJCDoAJCAoANAAoIOAAkIOgAkIOgAkICgA0ACgg4ACQg6ACQg6ACQgKADQAKCDgAJCDoAJCDoAJCAoANAAoIOAAkIOgAkIOgAkICgA0ACgg4ACQg6ACQg6ACQgKADQAKCDgAJCDoAJCDoAJCAoANAAoIOAAkIOgAkIOgAkICgA0ACgg4ACQg6ACQg6ACQgKADQAKCDgAJCDoAJCDoAJCAoANAAoIOAAkIOgAkIOgAkICgA0ACgg4ACQg6ACQg6ACQgKADQAKCDgAJCDoAJCDoAJCAoANAAoIOAAkIOgAkIOgAkICgA0ACgg4ACQg6ACQg6ACQgKADQAKCDgAJCDoAJCDoAJCAoANAAoIOAAkIOgAk0PpWqJbv7E3vc7UEADyWT9PX1dLt7KEDQAKCDgAJbDTlDjTT8uGy+0zlAfVnDx0AEhB0AEhA0AEgAcfQASABe+gAkICgA0ACgg4ACQg6ADRexP8DteLiH+plrfsAAAAASUVORK5CYII=;" parent="1" vertex="1">
          <mxGeometry x="-760" y="-10" width="368.27" height="260" as="geometry" />
        </mxCell>
      </root>
    </mxGraphModel>
  </diagram>
  <diagram id="C5RBs43oDa-KdzZeNtuy" name="BIMPropotype_Lib">
    <mxGraphModel dx="1377" dy="796" grid="1" gridSize="10" guides="1" tooltips="1" connect="1" arrows="1" fold="1" page="1" pageScale="1" pageWidth="827" pageHeight="1169" math="0" shadow="0">
      <root>
        <mxCell id="WIyWlLk6GJQsqaUBKTNV-0" />
        <mxCell id="WIyWlLk6GJQsqaUBKTNV-1" parent="WIyWlLk6GJQsqaUBKTNV-0" />
        <mxCell id="HteS14eksQEwREcJLVTW-0" value="&lt;p style=&quot;margin:0px;margin-top:4px;text-align:center;&quot;&gt;&lt;i&gt;&amp;lt;&amp;lt;Interface&amp;gt;&amp;gt;&lt;/i&gt;&lt;br&gt;&lt;b&gt;IStructure&lt;/b&gt;&lt;br&gt;&lt;/p&gt;&lt;hr size=&quot;1&quot;&gt;&lt;p style=&quot;margin:0px;margin-left:4px;&quot;&gt;+ BaseStructure: TSG.CoordinateSystem&lt;/p&gt;&lt;hr size=&quot;1&quot;&gt;&lt;p style=&quot;margin:0px;margin-left:4px;&quot;&gt;+ Insert(IStructure): void&lt;br&gt;+ InsertMirror(IStructure): void&lt;/p&gt;" style="verticalAlign=top;align=left;overflow=fill;fontSize=12;fontFamily=Helvetica;html=1;whiteSpace=wrap;" parent="WIyWlLk6GJQsqaUBKTNV-1" vertex="1">
          <mxGeometry x="400" y="60" width="260" height="120" as="geometry" />
        </mxCell>
        <mxCell id="HteS14eksQEwREcJLVTW-3" style="edgeStyle=orthogonalEdgeStyle;rounded=0;orthogonalLoop=1;jettySize=auto;html=1;dashed=1;endArrow=block;endFill=0;entryX=0;entryY=0;entryDx=0;entryDy=0;exitX=0.5;exitY=0;exitDx=0;exitDy=0;" parent="WIyWlLk6GJQsqaUBKTNV-1" source="EbOprKKTyteBAzGSTkzD-0" target="HteS14eksQEwREcJLVTW-0" edge="1">
          <mxGeometry relative="1" as="geometry">
            <mxPoint x="430" y="70" as="targetPoint" />
            <Array as="points">
              <mxPoint x="290" y="60" />
            </Array>
          </mxGeometry>
        </mxCell>
        <mxCell id="EbOprKKTyteBAzGSTkzD-28" style="edgeStyle=orthogonalEdgeStyle;shape=connector;rounded=0;orthogonalLoop=1;jettySize=auto;html=1;exitX=0.75;exitY=0;exitDx=0;exitDy=0;entryX=0.25;entryY=0;entryDx=0;entryDy=0;dashed=1;labelBackgroundColor=default;strokeColor=default;fontFamily=Helvetica;fontSize=11;fontColor=default;endArrow=block;endFill=0;" parent="WIyWlLk6GJQsqaUBKTNV-1" source="HteS14eksQEwREcJLVTW-1" target="EbOprKKTyteBAzGSTkzD-25" edge="1">
          <mxGeometry relative="1" as="geometry">
            <Array as="points">
              <mxPoint x="260" y="340" />
              <mxPoint x="400" y="340" />
              <mxPoint x="400" y="210" />
              <mxPoint x="565" y="210" />
            </Array>
          </mxGeometry>
        </mxCell>
        <mxCell id="HteS14eksQEwREcJLVTW-1" value="&lt;p style=&quot;margin:0px;margin-top:4px;text-align:center;&quot;&gt;&lt;b&gt;BIMPart&lt;/b&gt;&lt;/p&gt;&lt;hr size=&quot;1&quot;&gt;&lt;p style=&quot;margin:0px;margin-left:4px;&quot;&gt;+ Children: List&amp;lt;BIMPartChildren&amp;gt;&lt;/p&gt;&lt;hr size=&quot;1&quot;&gt;&lt;p style=&quot;margin:0px;margin-left:4px;&quot;&gt;+ method(): Type&lt;/p&gt;" style="verticalAlign=top;align=left;overflow=fill;fontSize=12;fontFamily=Helvetica;html=1;whiteSpace=wrap;" parent="WIyWlLk6GJQsqaUBKTNV-1" vertex="1">
          <mxGeometry x="120" y="350" width="210" height="90" as="geometry" />
        </mxCell>
        <mxCell id="EbOprKKTyteBAzGSTkzD-27" style="edgeStyle=orthogonalEdgeStyle;shape=connector;rounded=0;orthogonalLoop=1;jettySize=auto;html=1;exitX=1;exitY=0;exitDx=0;exitDy=0;entryX=0;entryY=0;entryDx=0;entryDy=0;dashed=1;labelBackgroundColor=default;strokeColor=default;fontFamily=Helvetica;fontSize=11;fontColor=default;endArrow=block;endFill=0;" parent="WIyWlLk6GJQsqaUBKTNV-1" source="EbOprKKTyteBAzGSTkzD-0" target="EbOprKKTyteBAzGSTkzD-25" edge="1">
          <mxGeometry relative="1" as="geometry" />
        </mxCell>
        <mxCell id="EbOprKKTyteBAzGSTkzD-0" value="&lt;p style=&quot;margin:0px;margin-top:4px;text-align:center;&quot;&gt;&lt;b&gt;BIMAssembly&lt;/b&gt;&lt;/p&gt;&lt;hr size=&quot;1&quot;&gt;&lt;p style=&quot;margin:0px;margin-left:4px;&quot;&gt;+ Children: List&amp;lt;BIMPart&amp;gt;&lt;/p&gt;&lt;hr size=&quot;1&quot;&gt;&lt;p style=&quot;margin:0px;margin-left:4px;&quot;&gt;+ method(): Type&lt;/p&gt;" style="verticalAlign=top;align=left;overflow=fill;fontSize=12;fontFamily=Helvetica;html=1;whiteSpace=wrap;" parent="WIyWlLk6GJQsqaUBKTNV-1" vertex="1">
          <mxGeometry x="210" y="240" width="160" height="90" as="geometry" />
        </mxCell>
        <mxCell id="EbOprKKTyteBAzGSTkzD-1" value="&lt;p style=&quot;margin:0px;margin-top:4px;text-align:center;&quot;&gt;&lt;b&gt;BIMPartChildren&lt;/b&gt;&lt;/p&gt;&lt;hr size=&quot;1&quot;&gt;&lt;p style=&quot;margin:0px;margin-left:4px;&quot;&gt;+ field: Type&lt;/p&gt;&lt;hr size=&quot;1&quot;&gt;&lt;p style=&quot;margin:0px;margin-left:4px;&quot;&gt;+ method(): Type&lt;/p&gt;" style="verticalAlign=top;align=left;overflow=fill;fontSize=12;fontFamily=Helvetica;html=1;whiteSpace=wrap;" parent="WIyWlLk6GJQsqaUBKTNV-1" vertex="1">
          <mxGeometry x="160" y="510" width="160" height="90" as="geometry" />
        </mxCell>
        <mxCell id="EbOprKKTyteBAzGSTkzD-29" style="edgeStyle=orthogonalEdgeStyle;shape=connector;rounded=0;orthogonalLoop=1;jettySize=auto;html=1;exitX=0.25;exitY=0;exitDx=0;exitDy=0;entryX=0.75;entryY=0;entryDx=0;entryDy=0;dashed=1;labelBackgroundColor=default;strokeColor=default;fontFamily=Helvetica;fontSize=11;fontColor=default;endArrow=block;endFill=0;" parent="WIyWlLk6GJQsqaUBKTNV-1" source="fWzENnmjnAqCnZldVDEU-0" target="EbOprKKTyteBAzGSTkzD-25" edge="1">
          <mxGeometry relative="1" as="geometry">
            <mxPoint x="550" y="460" as="sourcePoint" />
            <Array as="points">
              <mxPoint x="608" y="415" />
              <mxPoint x="480" y="415" />
              <mxPoint x="480" y="230" />
              <mxPoint x="695" y="230" />
            </Array>
          </mxGeometry>
        </mxCell>
        <mxCell id="EbOprKKTyteBAzGSTkzD-4" value="" style="endArrow=open;html=1;edgeStyle=orthogonalEdgeStyle;rounded=0;endFill=0;startArrow=diamondThin;startFill=0;startSize=12;exitX=1;exitY=0.5;exitDx=0;exitDy=0;entryX=0;entryY=0;entryDx=0;entryDy=0;" parent="WIyWlLk6GJQsqaUBKTNV-1" source="EbOprKKTyteBAzGSTkzD-1" target="fWzENnmjnAqCnZldVDEU-0" edge="1">
          <mxGeometry relative="1" as="geometry">
            <mxPoint x="290" y="610" as="sourcePoint" />
            <mxPoint x="510" y="460" as="targetPoint" />
            <Array as="points">
              <mxPoint x="450" y="555" />
              <mxPoint x="450" y="460" />
              <mxPoint x="530" y="460" />
            </Array>
          </mxGeometry>
        </mxCell>
        <mxCell id="EbOprKKTyteBAzGSTkzD-16" value="" style="endArrow=open;html=1;edgeStyle=orthogonalEdgeStyle;rounded=0;endFill=0;startArrow=diamondThin;startFill=0;startSize=12;entryX=1;entryY=0;entryDx=0;entryDy=0;exitX=1;exitY=0.5;exitDx=0;exitDy=0;" parent="WIyWlLk6GJQsqaUBKTNV-1" source="EbOprKKTyteBAzGSTkzD-0" target="HteS14eksQEwREcJLVTW-1" edge="1">
          <mxGeometry relative="1" as="geometry">
            <mxPoint x="340" y="280" as="sourcePoint" />
            <mxPoint x="550" y="320" as="targetPoint" />
            <Array as="points">
              <mxPoint x="430" y="285" />
              <mxPoint x="430" y="350" />
            </Array>
          </mxGeometry>
        </mxCell>
        <mxCell id="EbOprKKTyteBAzGSTkzD-20" value="" style="endArrow=open;html=1;edgeStyle=orthogonalEdgeStyle;rounded=0;endFill=0;startArrow=diamondThin;startFill=0;startSize=12;exitX=1;exitY=0.5;exitDx=0;exitDy=0;entryX=1;entryY=0;entryDx=0;entryDy=0;" parent="WIyWlLk6GJQsqaUBKTNV-1" source="HteS14eksQEwREcJLVTW-1" target="EbOprKKTyteBAzGSTkzD-1" edge="1">
          <mxGeometry relative="1" as="geometry">
            <mxPoint x="340" y="390" as="sourcePoint" />
            <mxPoint x="340" y="460" as="targetPoint" />
            <Array as="points">
              <mxPoint x="430" y="395" />
              <mxPoint x="430" y="510" />
            </Array>
          </mxGeometry>
        </mxCell>
        <mxCell id="EbOprKKTyteBAzGSTkzD-25" value="&lt;p style=&quot;margin:0px;margin-top:4px;text-align:center;&quot;&gt;&lt;i&gt;&amp;lt;&amp;lt;Interface&amp;gt;&amp;gt;&lt;/i&gt;&lt;br&gt;&lt;b&gt;IBIMCollection&lt;/b&gt;&lt;br&gt;&lt;/p&gt;&lt;hr size=&quot;1&quot;&gt;&lt;p style=&quot;margin:0px;margin-left:4px;&quot;&gt;+ Items: List&amp;lt;IStructure&amp;gt;&lt;/p&gt;&lt;hr size=&quot;1&quot;&gt;&lt;p style=&quot;margin:0px;margin-left:4px;&quot;&gt;+ Insert(IStructure): void&lt;br&gt;+ InsertMirror(IStructure): void&lt;/p&gt;" style="verticalAlign=top;align=left;overflow=fill;fontSize=12;fontFamily=Helvetica;html=1;whiteSpace=wrap;" parent="WIyWlLk6GJQsqaUBKTNV-1" vertex="1">
          <mxGeometry x="500" y="250" width="260" height="120" as="geometry" />
        </mxCell>
        <mxCell id="xoi6_LnDIXqUBt3bJvNL-1" style="edgeStyle=orthogonalEdgeStyle;shape=connector;rounded=0;orthogonalLoop=1;jettySize=auto;html=1;exitX=1;exitY=0;exitDx=0;exitDy=0;entryX=0.25;entryY=0;entryDx=0;entryDy=0;labelBackgroundColor=default;strokeColor=default;fontFamily=Helvetica;fontSize=11;fontColor=default;startArrow=none;startFill=0;endArrow=block;endFill=0;startSize=6;endSize=6;dashed=1;" parent="WIyWlLk6GJQsqaUBKTNV-1" source="xoi6_LnDIXqUBt3bJvNL-0" target="HteS14eksQEwREcJLVTW-0" edge="1">
          <mxGeometry relative="1" as="geometry" />
        </mxCell>
        <mxCell id="xoi6_LnDIXqUBt3bJvNL-2" style="edgeStyle=orthogonalEdgeStyle;shape=connector;rounded=0;orthogonalLoop=1;jettySize=auto;html=1;exitX=0.75;exitY=0;exitDx=0;exitDy=0;dashed=1;labelBackgroundColor=default;strokeColor=default;fontFamily=Helvetica;fontSize=11;fontColor=default;startArrow=none;startFill=0;endArrow=block;endFill=0;startSize=6;endSize=6;" parent="WIyWlLk6GJQsqaUBKTNV-1" source="xoi6_LnDIXqUBt3bJvNL-0" target="EbOprKKTyteBAzGSTkzD-25" edge="1">
          <mxGeometry relative="1" as="geometry">
            <Array as="points">
              <mxPoint x="195" y="110" />
              <mxPoint x="260" y="110" />
              <mxPoint x="260" y="200" />
              <mxPoint x="630" y="200" />
            </Array>
          </mxGeometry>
        </mxCell>
        <mxCell id="xoi6_LnDIXqUBt3bJvNL-0" value="&lt;p style=&quot;margin:0px;margin-top:4px;text-align:center;&quot;&gt;&lt;b&gt;BIMStructure&lt;/b&gt;&lt;/p&gt;&lt;hr size=&quot;1&quot;&gt;&lt;p style=&quot;margin:0px;margin-left:4px;&quot;&gt;+ Children: List&amp;lt;BIMAssembly&amp;gt;&lt;/p&gt;&lt;hr size=&quot;1&quot;&gt;&lt;p style=&quot;margin:0px;margin-left:4px;&quot;&gt;+ method(): Type&lt;/p&gt;" style="verticalAlign=top;align=left;overflow=fill;fontSize=12;fontFamily=Helvetica;html=1;whiteSpace=wrap;" parent="WIyWlLk6GJQsqaUBKTNV-1" vertex="1">
          <mxGeometry x="60" y="130" width="180" height="90" as="geometry" />
        </mxCell>
        <mxCell id="fWzENnmjnAqCnZldVDEU-0" value="BIMJoint" style="swimlane;fontStyle=1;align=center;verticalAlign=top;childLayout=stackLayout;horizontal=1;startSize=26;horizontalStack=0;resizeParent=1;resizeParentMax=0;resizeLast=0;collapsible=1;marginBottom=0;whiteSpace=wrap;html=1;fontFamily=Helvetica;fontSize=11;fontColor=default;" parent="WIyWlLk6GJQsqaUBKTNV-1" vertex="1">
          <mxGeometry x="530" y="480" width="180" height="60" as="geometry">
            <mxRectangle x="-290" y="585" width="120" height="30" as="alternateBounds" />
          </mxGeometry>
        </mxCell>
        <mxCell id="fWzENnmjnAqCnZldVDEU-1" value="+ Children: List&amp;lt;BIMPartChildren&amp;gt;" style="text;strokeColor=none;fillColor=none;align=left;verticalAlign=top;spacingLeft=4;spacingRight=4;overflow=hidden;rotatable=0;points=[[0,0.5],[1,0.5]];portConstraint=eastwest;whiteSpace=wrap;html=1;fontSize=11;fontFamily=Helvetica;fontColor=default;" parent="fWzENnmjnAqCnZldVDEU-0" vertex="1">
          <mxGeometry y="26" width="180" height="26" as="geometry" />
        </mxCell>
        <mxCell id="fWzENnmjnAqCnZldVDEU-3" value="" style="line;strokeWidth=1;fillColor=none;align=left;verticalAlign=middle;spacingTop=-1;spacingLeft=3;spacingRight=3;rotatable=0;labelPosition=right;points=[];portConstraint=eastwest;strokeColor=inherit;fontFamily=Helvetica;fontSize=11;fontColor=default;" parent="fWzENnmjnAqCnZldVDEU-0" vertex="1">
          <mxGeometry y="52" width="180" height="8" as="geometry" />
        </mxCell>
        <mxCell id="fWzENnmjnAqCnZldVDEU-9" value="&lt;i style=&quot;border-color: var(--border-color); font-size: 12px; font-weight: 400;&quot;&gt;&amp;lt;&amp;lt;Interface&amp;gt;&amp;gt;&lt;/i&gt;&lt;b style=&quot;border-color: var(--border-color); font-size: 12px;&quot;&gt;IReference&lt;/b&gt;" style="swimlane;fontStyle=1;align=center;verticalAlign=top;childLayout=stackLayout;horizontal=1;startSize=26;horizontalStack=0;resizeParent=1;resizeParentMax=0;resizeLast=0;collapsible=1;marginBottom=0;whiteSpace=wrap;html=1;fontFamily=Helvetica;fontSize=11;fontColor=default;" parent="WIyWlLk6GJQsqaUBKTNV-1" vertex="1">
          <mxGeometry x="540" y="600" width="180" height="138" as="geometry">
            <mxRectangle x="-290" y="585" width="120" height="30" as="alternateBounds" />
          </mxGeometry>
        </mxCell>
        <mxCell id="fWzENnmjnAqCnZldVDEU-10" value="+ Name: string" style="text;strokeColor=none;fillColor=none;align=left;verticalAlign=top;spacingLeft=4;spacingRight=4;overflow=hidden;rotatable=0;points=[[0,0.5],[1,0.5]];portConstraint=eastwest;whiteSpace=wrap;html=1;fontSize=11;fontFamily=Helvetica;fontColor=default;" parent="fWzENnmjnAqCnZldVDEU-9" vertex="1">
          <mxGeometry y="26" width="180" height="26" as="geometry" />
        </mxCell>
        <mxCell id="fWzENnmjnAqCnZldVDEU-12" value="+ Prefix: string" style="text;strokeColor=none;fillColor=none;align=left;verticalAlign=top;spacingLeft=4;spacingRight=4;overflow=hidden;rotatable=0;points=[[0,0.5],[1,0.5]];portConstraint=eastwest;whiteSpace=wrap;html=1;fontSize=11;fontFamily=Helvetica;fontColor=default;" parent="fWzENnmjnAqCnZldVDEU-9" vertex="1">
          <mxGeometry y="52" width="180" height="26" as="geometry" />
        </mxCell>
        <mxCell id="fWzENnmjnAqCnZldVDEU-11" value="" style="line;strokeWidth=1;fillColor=none;align=left;verticalAlign=middle;spacingTop=-1;spacingLeft=3;spacingRight=3;rotatable=0;labelPosition=right;points=[];portConstraint=eastwest;strokeColor=inherit;fontFamily=Helvetica;fontSize=11;fontColor=default;" parent="fWzENnmjnAqCnZldVDEU-9" vertex="1">
          <mxGeometry y="78" width="180" height="8" as="geometry" />
        </mxCell>
        <mxCell id="Ay-IOjSucehhHfjJsyM5-0" value="+ Save(): void" style="text;strokeColor=none;fillColor=none;align=left;verticalAlign=top;spacingLeft=4;spacingRight=4;overflow=hidden;rotatable=0;points=[[0,0.5],[1,0.5]];portConstraint=eastwest;whiteSpace=wrap;html=1;fontSize=11;fontFamily=Helvetica;fontColor=default;" parent="fWzENnmjnAqCnZldVDEU-9" vertex="1">
          <mxGeometry y="86" width="180" height="26" as="geometry" />
        </mxCell>
        <mxCell id="Ay-IOjSucehhHfjJsyM5-1" value="+ Load(): void" style="text;strokeColor=none;fillColor=none;align=left;verticalAlign=top;spacingLeft=4;spacingRight=4;overflow=hidden;rotatable=0;points=[[0,0.5],[1,0.5]];portConstraint=eastwest;whiteSpace=wrap;html=1;fontSize=11;fontFamily=Helvetica;fontColor=default;" parent="fWzENnmjnAqCnZldVDEU-9" vertex="1">
          <mxGeometry y="112" width="180" height="26" as="geometry" />
        </mxCell>
      </root>
    </mxGraphModel>
  </diagram>
  <diagram id="q1pBnELDVM-VhBKx1Z4P" name="PrototypeObserver">
    <mxGraphModel dx="2204" dy="796" grid="1" gridSize="10" guides="1" tooltips="1" connect="1" arrows="1" fold="1" page="1" pageScale="1" pageWidth="827" pageHeight="1169" math="0" shadow="0">
      <root>
        <mxCell id="0" />
        <mxCell id="1" parent="0" />
        <mxCell id="uhYmPHDHjy8MCoOQ0JJU-1" value="&lt;p style=&quot;margin:0px;margin-top:4px;text-align:center;&quot;&gt;&lt;b&gt;ContainerForSelected&lt;/b&gt;&lt;br&gt;&lt;/p&gt;&lt;hr size=&quot;1&quot;&gt;&lt;p style=&quot;margin:0px;margin-left:4px;&quot;&gt;+ SelectedElement: TreeViewItemViewModel&lt;/p&gt;&lt;hr size=&quot;1&quot;&gt;&lt;p style=&quot;margin:0px;margin-left:4px;&quot;&gt;+ ModifyAndSaveEvent(): event&lt;/p&gt;" style="verticalAlign=top;align=left;overflow=fill;fontSize=12;fontFamily=Helvetica;html=1;whiteSpace=wrap;" parent="1" vertex="1">
          <mxGeometry x="100" y="640" width="300" height="90" as="geometry" />
        </mxCell>
        <mxCell id="TYvsNY32-iEYGAjVFuBh-1" style="edgeStyle=orthogonalEdgeStyle;rounded=0;orthogonalLoop=1;jettySize=auto;html=1;entryX=0;entryY=0.25;entryDx=0;entryDy=0;dashed=1;endArrow=block;endFill=0;" parent="1" source="TYvsNY32-iEYGAjVFuBh-2" target="TYvsNY32-iEYGAjVFuBh-3" edge="1">
          <mxGeometry relative="1" as="geometry" />
        </mxCell>
        <mxCell id="TYvsNY32-iEYGAjVFuBh-2" value="&lt;p style=&quot;margin:0px;margin-top:4px;text-align:center;&quot;&gt;&lt;b&gt;TreeViewItemViewModel&lt;/b&gt;&lt;br&gt;&lt;/p&gt;&lt;hr size=&quot;1&quot;&gt;&lt;p style=&quot;margin:0px;margin-left:4px;&quot;&gt;+ Parent:TreeViewItemViewModel&lt;/p&gt;&lt;p style=&quot;border-color: var(--border-color); margin: 0px 0px 0px 4px;&quot;&gt;+ Children:TreeViewItemViewModel&lt;/p&gt;&lt;p style=&quot;border-color: var(--border-color); margin: 0px 0px 0px 4px;&quot;&gt;&lt;br style=&quot;border-color: var(--border-color);&quot;&gt;&lt;/p&gt;&lt;p style=&quot;margin:0px;margin-left:4px;&quot;&gt;&lt;br&gt;&lt;/p&gt;" style="verticalAlign=top;align=left;overflow=fill;fontSize=12;fontFamily=Helvetica;html=1;whiteSpace=wrap;" parent="1" vertex="1">
          <mxGeometry x="-110" y="480" width="200" height="70" as="geometry" />
        </mxCell>
        <mxCell id="TYvsNY32-iEYGAjVFuBh-3" value="&lt;p style=&quot;margin:0px;margin-top:4px;text-align:center;&quot;&gt;&lt;i&gt;&amp;lt;&amp;lt;Interface&amp;gt;&amp;gt;&lt;/i&gt;&lt;br&gt;&lt;b&gt;IModelOperations&lt;/b&gt;&lt;br&gt;&lt;/p&gt;&lt;hr size=&quot;1&quot;&gt;&lt;p style=&quot;margin:0px;margin-left:4px;&quot;&gt;&lt;br&gt;&lt;/p&gt;&lt;hr size=&quot;1&quot;&gt;&lt;p style=&quot;margin:0px;margin-left:4px;&quot;&gt;+ Insert(TSM.Model): void&lt;/p&gt;" style="verticalAlign=top;align=left;overflow=fill;fontSize=12;fontFamily=Helvetica;html=1;whiteSpace=wrap;" parent="1" vertex="1">
          <mxGeometry x="-110" y="240" width="150" height="100" as="geometry" />
        </mxCell>
        <mxCell id="TYvsNY32-iEYGAjVFuBh-4" style="edgeStyle=orthogonalEdgeStyle;rounded=0;orthogonalLoop=1;jettySize=auto;html=1;exitX=0.25;exitY=0;exitDx=0;exitDy=0;entryX=0;entryY=0;entryDx=0;entryDy=0;endArrow=block;endFill=0;" parent="1" source="TYvsNY32-iEYGAjVFuBh-5" target="TYvsNY32-iEYGAjVFuBh-2" edge="1">
          <mxGeometry relative="1" as="geometry" />
        </mxCell>
        <mxCell id="TYvsNY32-iEYGAjVFuBh-6" style="edgeStyle=orthogonalEdgeStyle;rounded=0;orthogonalLoop=1;jettySize=auto;html=1;entryX=0;entryY=0;entryDx=0;entryDy=0;startArrow=diamondThin;startFill=0;endArrow=open;endFill=0;startSize=12;exitX=0.996;exitY=0.4;exitDx=0;exitDy=0;exitPerimeter=0;" parent="1" source="TYvsNY32-iEYGAjVFuBh-5" target="uhYmPHDHjy8MCoOQ0JJU-1" edge="1">
          <mxGeometry relative="1" as="geometry" />
        </mxCell>
        <mxCell id="TYvsNY32-iEYGAjVFuBh-5" value="&lt;p style=&quot;margin:0px;margin-top:4px;text-align:center;&quot;&gt;&lt;b&gt;AssemblyViewModel&lt;/b&gt;&lt;br&gt;&lt;/p&gt;&lt;hr size=&quot;1&quot;&gt;&lt;p style=&quot;margin:0px;margin-left:4px;&quot;&gt;+ InContainerForSelected:ContainerForSelected&lt;/p&gt;&lt;hr size=&quot;1&quot;&gt;&amp;nbsp;+ Insert(TSM.Model): void&lt;p style=&quot;margin:0px;margin-left:4px;&quot;&gt;&lt;/p&gt;" style="verticalAlign=top;align=left;overflow=fill;fontSize=12;fontFamily=Helvetica;html=1;whiteSpace=wrap;" parent="1" vertex="1">
          <mxGeometry x="-250" y="660" width="270" height="90" as="geometry" />
        </mxCell>
      </root>
    </mxGraphModel>
  </diagram>
</mxfile>
